<?xml version="1.0" standalone="no"?>
<!DOCTYPE svg PUBLIC "-//W3C//DTD SVG 20010904//EN"
 "http://www.w3.org/TR/2001/REC-SVG-20010904/DTD/svg10.dtd">
<svg version="1.0" xmlns="http://www.w3.org/2000/svg"
 width="512.000000pt" height="512.000000pt" viewBox="0 0 512.000000 512.000000"
 preserveAspectRatio="xMidYMid meet">

<g transform="translate(0.000000,512.000000) scale(0.100000,-0.100000)"
fill="#4F46E5" stroke="none">
<path d="M1287 4687 c-990 -342 -1253 -437 -1268 -456 -19 -23 -19 -72 -19
-2098 l0 -2075 29 -29 29 -29 241 0 c239 0 240 0 268 24 l28 24 3 1341 2 1341
1960 0 1960 0 2 -1341 3 -1341 28 -24 c28 -24 29 -24 268 -24 l241 0 29 29 29
29 0 2076 0 2075 -22 25 c-18 20 -277 112 -1273 455 -688 237 -1260 431 -1270
430 -11 0 -582 -195 -1268 -432z m2473 -156 l1185 -409 3 -271 2 -271 -2390 0
-2390 0 2 271 3 271 1180 408 c649 224 1189 408 1200 409 11 0 553 -183 1205
-408z m-3330 -2741 l0 -1620 -130 0 -130 0 0 1620 0 1620 130 0 130 0 0 -1620z
m4090 1535 l0 -85 -1960 0 -1960 0 0 85 0 85 1960 0 1960 0 0 -85z m430 -1535
l0 -1620 -130 0 -130 0 0 1620 0 1620 130 0 130 0 0 -1620z m-430 1195 l0 -85
-1960 0 -1960 0 0 85 0 85 1960 0 1960 0 0 -85z"/>
<path d="M1624 2280 c-79 -35 -105 -74 -262 -386 l-149 -297 -169 -86 c-121
-61 -173 -93 -182 -111 -9 -19 -11 -166 -10 -650 3 -698 -1 -659 75 -717 l36
-28 216 -3 c208 -3 218 -2 260 20 84 43 100 88 101 281 l0 127 1020 0 1020 0
0 -127 c1 -193 17 -238 101 -281 42 -22 52 -23 260 -20 l216 3 36 28 c76 58
72 19 75 717 1 484 -1 631 -10 650 -9 18 -61 50 -182 111 l-169 86 -153 304
c-160 319 -174 340 -259 380 -38 18 -81 19 -935 18 -846 0 -897 -1 -936 -19z
m1817 -163 c9 -7 71 -122 138 -255 l121 -242 -1140 0 -1140 0 121 242 c67 133
129 248 138 255 23 18 1739 18 1762 0z m519 -737 l140 -70 0 -355 0 -355
-1540 0 -1540 0 0 355 0 355 138 69 137 70 1263 0 1262 1 140 -70z m-2595
-1080 l0 -125 -172 -3 -173 -2 0 123 c0 68 3 127 7 131 4 3 81 5 172 4 l166
-3 0 -125z m2733 -3 l3 -127 -173 2 -173 3 -3 114 c-1 63 0 121 2 128 4 11 41
13 173 11 l168 -3 3 -128z"/>
<path d="M1290 1258 c-61 -31 -87 -74 -96 -155 -8 -83 1 -205 20 -241 19 -35
54 -68 89 -81 16 -6 101 -11 195 -11 155 0 170 2 207 23 22 13 49 40 62 62 20
36 23 54 23 166 0 152 -17 198 -90 236 -40 21 -55 23 -204 23 -148 0 -166 -2
-206 -22z m330 -233 l0 -85 -125 0 -125 0 0 85 0 85 125 0 125 0 0 -85z"/>
<path d="M2062 1264 c-76 -38 -102 -99 -102 -239 0 -107 11 -153 47 -196 50
-59 49 -59 553 -59 504 0 503 0 553 59 38 46 50 101 45 221 -4 120 -17 153
-75 197 l-36 28 -476 2 c-423 3 -480 1 -509 -13z m928 -239 l0 -85 -430 0
-430 0 0 85 0 85 430 0 430 0 0 -85z"/>
<path d="M3420 1257 c-73 -38 -90 -84 -90 -236 0 -112 3 -130 23 -166 13 -22
40 -49 62 -62 37 -21 52 -23 207 -23 94 0 179 5 195 11 35 13 70 46 89 81 19
36 28 158 20 241 -9 81 -35 124 -96 155 -40 20 -58 22 -206 22 -149 0 -164 -2
-204 -23z m330 -232 l0 -85 -125 0 -125 0 0 85 0 85 125 0 125 0 0 -85z"/>
</g>
</svg>
