<?xml version="1.0" standalone="no"?>
<!DOCTYPE svg PUBLIC "-//W3C//DTD SVG 20010904//EN"
 "http://www.w3.org/TR/2001/REC-SVG-20010904/DTD/svg10.dtd">
<svg version="1.0" xmlns="http://www.w3.org/2000/svg"
 width="512.000000pt" height="512.000000pt" viewBox="0 0 512.000000 512.000000"
 preserveAspectRatio="xMidYMid meet">

<g transform="translate(0.000000,512.000000) scale(0.100000,-0.100000)"
fill="#4F46E5" stroke="none">
<path d="M3851 5099 c-50 -20 -207 -174 -1927 -1893 -1354 -1353 -1879 -1883
-1896 -1916 -31 -62 -32 -168 -1 -225 27 -50 995 -1016 1043 -1041 53 -28 162
-25 220 5 64 33 3768 3737 3801 3801 33 63 33 167 0 230 -32 63 -969 1000
-1030 1030 -64 32 -143 35 -210 9z m139 -109 c8 0 234 -219 502 -487 525 -525
518 -516 497 -598 -9 -35 -234 -263 -1872 -1902 -2019 -2018 -1890 -1896
-1977 -1873 -53 14 -999 962 -1009 1011 -16 77 -12 83 323 418 l316 316 244
-244 c202 -202 248 -243 272 -243 29 0 64 32 64 60 0 9 -111 128 -247 264
l-248 248 85 85 85 85 115 -115 c121 -120 148 -135 184 -99 36 36 21 63 -99
184 l-115 115 85 85 85 85 113 -112 c104 -104 122 -117 154 -114 21 2 43 32
43 58 0 20 -28 54 -112 140 l-112 113 82 83 82 82 243 -243 c253 -252 268
-263 309 -225 10 9 18 30 18 47 0 26 -32 62 -240 271 l-240 240 82 82 82 83
117 -115 c121 -120 143 -132 181 -98 38 35 24 61 -97 183 l-115 115 85 85 85
85 113 -113 c117 -117 146 -132 181 -96 36 35 21 64 -96 181 l-113 113 85 85
85 85 241 -241 c192 -192 247 -241 268 -241 36 0 56 19 56 56 0 27 -29 60
-240 271 l-240 240 82 82 82 82 117 -114 c80 -78 125 -115 140 -115 32 0 59
28 59 63 0 25 -19 50 -112 144 l-112 113 82 82 82 82 113 -112 c119 -117 146
-131 181 -96 36 35 21 64 -96 181 l-113 113 85 85 85 85 245 -245 c135 -135
254 -245 263 -245 23 0 67 44 67 67 0 9 -110 128 -245 263 l-245 245 85 85 85
85 113 -113 c117 -117 146 -132 181 -96 35 35 21 62 -96 181 l-112 113 82 82
82 82 243 -242 c179 -177 250 -242 267 -242 33 0 60 28 60 64 0 26 -32 62
-240 271 l-240 240 113 113 c110 110 149 136 192 127 11 -3 27 -5 35 -5z"/>
<path d="M786 1170 c-60 -24 -125 -85 -157 -148 -35 -69 -34 -187 3 -257 73
-139 227 -199 372 -145 154 58 231 245 163 393 -33 71 -66 108 -128 142 -71
38 -180 45 -253 15z m191 -121 c110 -53 125 -202 30 -286 -116 -101 -300 -3
-283 151 14 123 140 190 253 135z"/>
</g>
</svg>
