<?xml version="1.0" standalone="no"?>
<!DOCTYPE svg PUBLIC "-//W3C//DTD SVG 20010904//EN"
 "http://www.w3.org/TR/2001/REC-SVG-20010904/DTD/svg10.dtd">
<svg version="1.0" xmlns="http://www.w3.org/2000/svg"
 width="512.000000pt" height="512.000000pt" viewBox="0 0 512.000000 512.000000"
 preserveAspectRatio="xMidYMid meet">

<g transform="translate(0.000000,512.000000) scale(0.100000,-0.100000)"
fill="#4F46E5" stroke="none">
<path d="M29 5091 l-29 -29 0 -192 c0 -243 7 -259 113 -260 l57 0 0 -1030 c0
-1149 -4 -1080 68 -1099 20 -6 51 -11 69 -11 34 0 34 2 48 -130 8 -69 41 -196
71 -273 79 -200 200 -342 500 -584 157 -127 278 -246 333 -326 153 -225 193
-542 121 -962 -21 -124 -18 -151 22 -179 20 -14 153 -16 1405 -16 850 0 1391
4 1407 10 29 11 49 44 48 80 0 14 -23 68 -51 120 -142 271 -187 476 -198 910
l-6 245 54 19 c319 112 617 371 762 661 68 137 92 217 122 407 5 30 13 41 51
63 121 71 159 236 81 352 -41 61 -99 100 -166 113 -79 15 -3017 14 -3060 -1
-51 -18 -61 -50 -61 -199 l0 -130 -85 0 -85 0 0 594 0 594 78 4 c87 4 138 24
188 75 46 46 65 87 71 152 10 105 -36 196 -123 247 -39 23 -63 29 -131 32
l-83 5 0 128 0 129 60 0 c51 0 65 4 85 25 25 24 25 25 25 227 -1 212 -3 223
-47 246 -16 9 -240 12 -853 12 l-832 0 -29 -29z m1591 -226 l0 -85 -725 0
-725 0 0 85 0 85 725 0 725 0 0 -85z m-170 -1235 l0 -980 -555 0 -555 0 0 980
0 980 555 0 555 0 0 -980z m314 524 c17 -18 26 -37 26 -58 -1 -57 -41 -86
-119 -86 l-51 0 0 85 0 85 59 0 c50 0 62 -4 85 -26z m3130 -1348 c44 -18 63
-64 46 -106 -7 -17 -21 -35 -31 -40 -11 -6 -564 -10 -1483 -10 l-1466 0 0 78
c0 43 3 82 7 85 3 4 656 7 1450 7 1203 0 1449 -2 1477 -14z m-3176 -421 c44
-303 229 -597 507 -805 83 -62 272 -164 364 -196 l54 -19 -6 -245 c-11 -418
-54 -626 -182 -880 l-35 -70 -436 0 c-410 0 -435 1 -430 18 30 108 42 503 18
639 -17 102 -57 225 -104 318 -77 155 -192 282 -433 474 -200 160 -260 216
-329 308 -98 130 -152 256 -175 404 -6 41 -14 89 -17 107 l-5 32 599 0 598 0
12 -85z m3048 38 c-21 -149 -102 -342 -195 -463 -111 -147 -301 -299 -467
-376 -95 -44 -237 -89 -344 -110 -114 -21 -587 -31 -743 -15 -497 52 -901 332
-1068 741 -24 59 -49 157 -62 243 l-4 27 1445 0 1444 0 -6 -47z m-1451 -1137
c317 -1 418 5 508 30 16 5 17 -6 17 -133 0 -384 47 -666 151 -907 23 -54 39
-99 37 -102 -3 -2 -320 -3 -706 -2 l-701 3 33 75 c105 237 156 509 156 835 0
88 3 176 6 196 l6 36 77 -15 c58 -12 157 -15 416 -16z"/>
</g>
</svg>
