<svg width="213" height="111" viewBox="0 0 213 111" fill="none" xmlns="http://www.w3.org/2000/svg">
<path d="M0 38.6111C0 33.6405 4.02944 29.6111 9 29.6111H204C208.971 29.6111 213 33.6405 213 38.6111V73.2825H0V38.6111Z" fill="white"/>
<path d="M0 63.4244C0 58.4539 4.02944 54.4244 9 54.4244H204C208.971 54.4244 213 58.4539 213 63.4244V101.999C213 106.969 208.971 110.999 204 110.999H8.99999C4.02943 110.999 0 106.969 0 101.999V63.4244Z" fill="#4F46E5"/>
<path d="M46.3438 64.2994V98.4244H38.1406V64.2994H46.3438ZM62.3956 78.4791V98.4244H54.4972V73.0651H61.9034L62.3956 78.4791ZM61.4581 84.8776L59.6066 84.9244C59.6066 82.9869 59.8409 81.2604 60.3097 79.7448C60.7784 78.2135 61.4425 76.9166 62.3019 75.8541C63.1613 74.7916 64.1847 73.9869 65.3722 73.4401C66.5753 72.8776 67.9113 72.5963 69.38 72.5963C70.5519 72.5963 71.6222 72.7682 72.5909 73.1119C73.5753 73.4557 74.4191 74.0104 75.1222 74.776C75.8409 75.5416 76.3878 76.5573 76.7628 77.8229C77.1534 79.0729 77.3488 80.6198 77.3488 82.4635V98.4244H69.4034V82.4401C69.4034 81.4244 69.2628 80.651 68.9816 80.1198C68.7003 79.5729 68.2941 79.1979 67.7628 78.9948C67.2316 78.7916 66.5831 78.6901 65.8175 78.6901C65.005 78.6901 64.3175 78.8463 63.755 79.1588C63.1925 79.4713 62.7394 79.9088 62.3956 80.4713C62.0675 81.0182 61.8253 81.6666 61.6691 82.4166C61.5284 83.1666 61.4581 83.9869 61.4581 84.8776ZM94.2913 98.4244H86.3459V71.0026C86.3459 69.0338 86.7444 67.3776 87.5413 66.0338C88.3381 64.6901 89.4631 63.6744 90.9163 62.9869C92.3694 62.2838 94.0881 61.9323 96.0725 61.9323C96.76 61.9323 97.4084 61.9791 98.0178 62.0729C98.6272 62.1666 99.2209 62.2838 99.7991 62.4244L99.8225 68.2369C99.5413 68.1588 99.2522 68.1041 98.9553 68.0729C98.6584 68.0416 98.2913 68.026 97.8538 68.026C97.0881 68.026 96.4397 68.1432 95.9084 68.3776C95.3772 68.5963 94.9709 68.9323 94.6897 69.3854C94.4241 69.8229 94.2913 70.3619 94.2913 71.0026V98.4244ZM99.2131 73.0651V78.5494H82.6897V73.0651H99.2131ZM112.687 78.4791V98.4244H104.788V73.0651H112.195L112.687 78.4791ZM111.749 84.8776L109.898 84.9244C109.898 82.9869 110.132 81.2604 110.601 79.7448C111.07 78.2135 111.734 76.9166 112.593 75.8541C113.452 74.7916 114.476 73.9869 115.663 73.4401C116.867 72.8776 118.202 72.5963 119.671 72.5963C120.843 72.5963 121.913 72.7682 122.882 73.1119C123.867 73.4557 124.71 74.0104 125.413 74.776C126.132 75.5416 126.679 76.5573 127.054 77.8229C127.445 79.0729 127.64 80.6198 127.64 82.4635V98.4244H119.695V82.4401C119.695 81.4244 119.554 80.651 119.273 80.1198C118.992 79.5729 118.585 79.1979 118.054 78.9948C117.523 78.7916 116.874 78.6901 116.109 78.6901C115.296 78.6901 114.609 78.8463 114.046 79.1588C113.484 79.4713 113.031 79.9088 112.687 80.4713C112.359 81.0182 112.117 81.6666 111.96 82.4166C111.82 83.1666 111.749 83.9869 111.749 84.8776ZM147.184 98.8932C145.122 98.8932 143.278 98.5729 141.653 97.9323C140.028 97.276 138.653 96.3776 137.528 95.2369C136.418 94.0963 135.567 92.7838 134.973 91.2994C134.395 89.8151 134.106 88.2448 134.106 86.5885V85.6979C134.106 83.8385 134.364 82.1198 134.879 80.5416C135.395 78.9479 136.161 77.5573 137.176 76.3698C138.192 75.1823 139.465 74.2604 140.997 73.6041C142.528 72.9323 144.309 72.5963 146.34 72.5963C148.137 72.5963 149.747 72.8854 151.168 73.4635C152.59 74.0416 153.793 74.8698 154.778 75.9479C155.778 77.026 156.536 78.3307 157.051 79.8619C157.583 81.3932 157.848 83.1119 157.848 85.0182V88.2291H137.129V83.2838H150.137V82.6744C150.153 81.8307 150.004 81.1119 149.692 80.5182C149.395 79.9244 148.958 79.4713 148.379 79.1588C147.801 78.8463 147.098 78.6901 146.27 78.6901C145.411 78.6901 144.7 78.8776 144.137 79.2526C143.59 79.6276 143.161 80.1432 142.848 80.7994C142.551 81.4401 142.34 82.1823 142.215 83.026C142.09 83.8698 142.028 84.7604 142.028 85.6979V86.5885C142.028 87.526 142.153 88.3776 142.403 89.1432C142.668 89.9088 143.043 90.5651 143.528 91.1119C144.028 91.6432 144.622 92.0573 145.309 92.3541C146.012 92.651 146.809 92.7994 147.7 92.7994C148.778 92.7994 149.84 92.5963 150.887 92.1901C151.934 91.7838 152.833 91.1119 153.583 90.1744L157.168 94.4401C156.653 95.1744 155.918 95.8854 154.965 96.5729C154.028 97.2604 152.903 97.8229 151.59 98.2604C150.278 98.6823 148.809 98.8932 147.184 98.8932ZM177.298 73.0651V78.5494H162.017V73.0651H177.298ZM165.228 66.7604H173.127V90.151C173.127 90.8229 173.205 91.3463 173.361 91.7213C173.517 92.0807 173.783 92.3385 174.158 92.4948C174.548 92.6354 175.064 92.7057 175.705 92.7057C176.158 92.7057 176.533 92.6979 176.83 92.6823C177.127 92.651 177.408 92.6119 177.673 92.5651V98.2135C177.002 98.4323 176.298 98.5963 175.564 98.7057C174.83 98.8307 174.048 98.8932 173.22 98.8932C171.533 98.8932 170.088 98.6276 168.884 98.0963C167.697 97.5651 166.791 96.7291 166.166 95.5885C165.541 94.4479 165.228 92.9635 165.228 91.1354V66.7604Z" fill="white"/>
<rect x="65" width="27" height="61" fill="#4F46E5" fill-opacity="0.23"/>
<rect x="93" y="23.9644" width="27" height="37.0357" fill="#4F46E5" fill-opacity="0.23"/>
<rect x="121" y="15.25" width="27" height="45.75" fill="#4F46E5" fill-opacity="0.23"/>
<rect x="149" y="7.625" width="27" height="53.375" fill="#4F46E5" fill-opacity="0.23"/>
<rect x="37" y="11.9822" width="27" height="49.0179" fill="#4F46E5" fill-opacity="0.23"/>
<rect x="9" y="37.0358" width="27" height="23.9643" fill="#4F46E5" fill-opacity="0.23"/>
<rect x="177" y="27.2322" width="27" height="33.7679" fill="#4F46E5" fill-opacity="0.23"/>
<path d="M21.5625 26.9358V49.6858H16.0938V26.9358H21.5625ZM33.5244 36.3577V49.6858H28.2587V32.7795H33.1962L33.5244 36.3577ZM32.8837 40.6545L31.6806 40.6858C31.6806 39.4983 31.8212 38.4045 32.1025 37.4045C32.3837 36.4045 32.8004 35.5347 33.3525 34.7952C33.9046 34.0556 34.5817 33.4827 35.3837 33.0764C36.1962 32.6702 37.1337 32.467 38.1962 32.467C38.9358 32.467 39.6077 32.5816 40.2119 32.8108C40.816 33.0295 41.3369 33.3785 41.7744 33.8577C42.2119 34.3264 42.5452 34.941 42.7744 35.7014C43.014 36.4514 43.1337 37.3525 43.1337 38.4045V49.6858H37.8681V39.0764C37.8681 38.3577 37.7848 37.816 37.6181 37.4514C37.4619 37.0868 37.2327 36.842 36.9306 36.717C36.6285 36.592 36.2587 36.5295 35.8212 36.5295C35.3629 36.5295 34.9515 36.6337 34.5869 36.842C34.2223 37.0504 33.9098 37.342 33.6494 37.717C33.3994 38.0816 33.2067 38.5139 33.0712 39.0139C32.9462 39.5139 32.8837 40.0608 32.8837 40.6545ZM42.54 40.6545L41.0712 40.6858C41.0712 39.4983 41.2015 38.4045 41.4619 37.4045C41.7327 36.4045 42.1337 35.5347 42.665 34.7952C43.2067 34.0556 43.8785 33.4827 44.6806 33.0764C45.4827 32.6702 46.415 32.467 47.4775 32.467C48.2483 32.467 48.9567 32.5816 49.6025 32.8108C50.2483 33.04 50.8056 33.4097 51.2744 33.9202C51.7431 34.4306 52.1077 35.1077 52.3681 35.9514C52.6285 36.7847 52.7587 37.816 52.7587 39.0452V49.6858H47.4775V39.0452C47.4775 38.3472 47.3942 37.8212 47.2275 37.467C47.0712 37.1025 46.8421 36.8577 46.54 36.7327C46.2379 36.5972 45.8785 36.5295 45.4619 36.5295C44.9619 36.5295 44.5296 36.6337 44.165 36.842C43.8004 37.0504 43.4931 37.342 43.2431 37.717C43.0035 38.0816 42.8265 38.5139 42.7119 39.0139C42.5973 39.5139 42.54 40.0608 42.54 40.6545ZM58.1581 41.4045V41.0764C58.1581 39.8368 58.3352 38.6962 58.6894 37.6545C59.0435 36.6025 59.5644 35.691 60.2519 34.9202C60.9394 34.1493 61.7883 33.5504 62.7988 33.1233C63.8092 32.6858 64.9758 32.467 66.2988 32.467C67.6321 32.467 68.804 32.6858 69.8144 33.1233C70.8352 33.5504 71.6894 34.1493 72.3769 34.9202C73.0644 35.691 73.5852 36.6025 73.9394 37.6545C74.2935 38.6962 74.4706 39.8368 74.4706 41.0764V41.4045C74.4706 42.6337 74.2935 43.7743 73.9394 44.8264C73.5852 45.8681 73.0644 46.7795 72.3769 47.5608C71.6894 48.3316 70.8404 48.9306 69.83 49.3577C68.8196 49.7847 67.6529 49.9983 66.33 49.9983C65.0071 49.9983 63.8352 49.7847 62.8144 49.3577C61.7935 48.9306 60.9394 48.3316 60.2519 47.5608C59.5644 46.7795 59.0435 45.8681 58.6894 44.8264C58.3352 43.7743 58.1581 42.6337 58.1581 41.4045ZM63.4238 41.0764V41.4045C63.4238 42.04 63.4706 42.6337 63.5644 43.1858C63.6581 43.7379 63.8144 44.2222 64.0331 44.6389C64.2519 45.0452 64.5488 45.3629 64.9238 45.592C65.2988 45.8212 65.7675 45.9358 66.33 45.9358C66.8821 45.9358 67.3404 45.8212 67.705 45.592C68.08 45.3629 68.3769 45.0452 68.5956 44.6389C68.8144 44.2222 68.9706 43.7379 69.0644 43.1858C69.1581 42.6337 69.205 42.04 69.205 41.4045V41.0764C69.205 40.4618 69.1581 39.8837 69.0644 39.342C68.9706 38.79 68.8144 38.3056 68.5956 37.8889C68.3769 37.4618 68.08 37.1285 67.705 36.8889C67.33 36.6493 66.8613 36.5295 66.2988 36.5295C65.7467 36.5295 65.2831 36.6493 64.9081 36.8889C64.5435 37.1285 64.2519 37.4618 64.0331 37.8889C63.8144 38.3056 63.6581 38.79 63.5644 39.342C63.4706 39.8837 63.4238 40.4618 63.4238 41.0764ZM79.9013 25.6858H85.1669V45.5295L84.62 49.6858H79.9013V25.6858ZM95.5419 41.0452V41.3733C95.5419 42.6545 95.4117 43.8212 95.1513 44.8733C94.8908 45.9254 94.4898 46.8368 93.9481 47.6077C93.4065 48.3681 92.7242 48.9566 91.9013 49.3733C91.0783 49.79 90.1044 49.9983 88.9794 49.9983C87.9585 49.9983 87.0835 49.7795 86.3544 49.342C85.6252 48.8941 85.0158 48.2795 84.5263 47.4983C84.0367 46.7066 83.6408 45.7952 83.3388 44.7639C83.0367 43.7222 82.7971 42.6077 82.62 41.4202V41.0295C82.7971 39.8525 83.0367 38.7483 83.3388 37.717C83.6408 36.6754 84.0367 35.7639 84.5263 34.9827C85.0158 34.191 85.62 33.5764 86.3388 33.1389C87.0679 32.691 87.9377 32.467 88.9481 32.467C90.0835 32.467 91.0627 32.6806 91.8856 33.1077C92.719 33.5347 93.4065 34.1337 93.9481 34.9045C94.4898 35.6754 94.8908 36.5816 95.1513 37.6233C95.4117 38.665 95.5419 39.8056 95.5419 41.0452ZM90.2763 41.3733V41.0452C90.2763 40.4306 90.2398 39.8525 90.1669 39.3108C90.094 38.7691 89.9638 38.29 89.7763 37.8733C89.5888 37.4566 89.3231 37.1285 88.9794 36.8889C88.6356 36.6493 88.1877 36.5295 87.6356 36.5295C87.0731 36.5295 86.5992 36.6233 86.2138 36.8108C85.8388 36.9983 85.5367 37.2691 85.3075 37.6233C85.0888 37.967 84.9325 38.3941 84.8388 38.9045C84.745 39.4045 84.7033 39.9722 84.7138 40.6077V41.842C84.6929 42.7066 84.771 43.4462 84.9481 44.0608C85.1252 44.6754 85.4325 45.1441 85.87 45.467C86.3075 45.79 86.9065 45.9514 87.6669 45.9514C88.2294 45.9514 88.6825 45.842 89.0263 45.6233C89.3804 45.4045 89.646 45.092 89.8231 44.6858C90.0002 44.2795 90.12 43.7952 90.1825 43.2327C90.245 42.6702 90.2763 42.0504 90.2763 41.3733ZM106.488 32.7795V49.6858H101.207V32.7795H106.488ZM100.894 28.4202C100.894 27.6702 101.165 27.0556 101.707 26.5764C102.249 26.0972 102.952 25.8577 103.816 25.8577C104.681 25.8577 105.384 26.0972 105.926 26.5764C106.467 27.0556 106.738 27.6702 106.738 28.4202C106.738 29.1702 106.467 29.7847 105.926 30.2639C105.384 30.7431 104.681 30.9827 103.816 30.9827C102.952 30.9827 102.249 30.7431 101.707 30.2639C101.165 29.7847 100.894 29.1702 100.894 28.4202ZM118.341 25.6858V49.6858H113.059V25.6858H118.341ZM130.193 32.7795V49.6858H124.912V32.7795H130.193ZM124.599 28.4202C124.599 27.6702 124.87 27.0556 125.412 26.5764C125.954 26.0972 126.657 25.8577 127.521 25.8577C128.386 25.8577 129.089 26.0972 129.631 26.5764C130.172 27.0556 130.443 27.6702 130.443 28.4202C130.443 29.1702 130.172 29.7847 129.631 30.2639C129.089 30.7431 128.386 30.9827 127.521 30.9827C126.657 30.9827 125.954 30.7431 125.412 30.2639C124.87 29.7847 124.599 29.1702 124.599 28.4202ZM145.264 45.4358V38.467C145.264 37.9879 145.197 37.5764 145.061 37.2327C144.926 36.8889 144.712 36.6233 144.421 36.4358C144.129 36.2379 143.738 36.1389 143.249 36.1389C142.853 36.1389 142.514 36.2066 142.233 36.342C141.952 36.4775 141.738 36.6806 141.592 36.9514C141.447 37.2222 141.374 37.566 141.374 37.9827H136.108C136.108 37.2014 136.28 36.4775 136.624 35.8108C136.978 35.1337 137.478 34.5452 138.124 34.0452C138.78 33.5452 139.561 33.1597 140.467 32.8889C141.384 32.6077 142.405 32.467 143.53 32.467C144.874 32.467 146.072 32.691 147.124 33.1389C148.186 33.5868 149.025 34.2587 149.639 35.1545C150.254 36.04 150.561 37.1545 150.561 38.4983V45.4202C150.561 46.5243 150.624 47.3629 150.749 47.9358C150.874 48.4983 151.051 48.9931 151.28 49.4202V49.6858H145.999C145.749 49.165 145.561 48.5295 145.436 47.7795C145.322 47.0191 145.264 46.2379 145.264 45.4358ZM145.905 39.3577L145.936 42.1702H143.608C143.119 42.1702 142.702 42.2379 142.358 42.3733C142.025 42.5087 141.754 42.6962 141.546 42.9358C141.348 43.165 141.202 43.4254 141.108 43.717C141.025 44.0087 140.983 44.316 140.983 44.6389C140.983 44.9514 141.056 45.2327 141.202 45.4827C141.358 45.7222 141.566 45.9097 141.827 46.0452C142.087 46.1806 142.379 46.2483 142.702 46.2483C143.285 46.2483 143.78 46.1389 144.186 45.9202C144.603 45.691 144.921 45.415 145.139 45.092C145.358 44.7691 145.467 44.467 145.467 44.1858L146.624 46.342C146.415 46.7587 146.176 47.1806 145.905 47.6077C145.645 48.0347 145.316 48.4306 144.921 48.7952C144.535 49.1493 144.061 49.441 143.499 49.6702C142.936 49.8889 142.254 49.9983 141.452 49.9983C140.41 49.9983 139.452 49.7847 138.577 49.3577C137.712 48.9306 137.02 48.3368 136.499 47.5764C135.978 46.8056 135.717 45.9202 135.717 44.9202C135.717 44.0452 135.874 43.2639 136.186 42.5764C136.509 41.8889 136.994 41.3056 137.639 40.8264C138.285 40.3472 139.108 39.9827 140.108 39.7327C141.108 39.4827 142.285 39.3577 143.639 39.3577H145.905ZM140.952 30.592L144.046 25.6858H149.608L145.249 30.592H140.952ZM161.836 36.967V49.6858H156.57V32.7795H161.492L161.836 36.967ZM166.836 32.6545L166.742 37.5452C166.534 37.5243 166.252 37.4983 165.898 37.467C165.544 37.4358 165.247 37.4202 165.008 37.4202C164.393 37.4202 163.862 37.4931 163.414 37.6389C162.976 37.7743 162.612 37.9827 162.32 38.2639C162.039 38.5347 161.83 38.8785 161.695 39.2952C161.57 39.7118 161.513 40.1962 161.523 40.7483L160.57 40.1233C160.57 38.9879 160.679 37.9566 160.898 37.0295C161.127 36.092 161.45 35.2847 161.867 34.6077C162.284 33.9202 162.789 33.3941 163.383 33.0295C163.976 32.6545 164.643 32.467 165.383 32.467C165.643 32.467 165.898 32.4827 166.148 32.5139C166.409 32.5452 166.638 32.592 166.836 32.6545ZM177.251 32.7795V49.6858H171.969V32.7795H177.251ZM171.657 28.4202C171.657 27.6702 171.928 27.0556 172.469 26.5764C173.011 26.0972 173.714 25.8577 174.579 25.8577C175.443 25.8577 176.146 26.0972 176.688 26.5764C177.23 27.0556 177.501 27.6702 177.501 28.4202C177.501 29.1702 177.23 29.7847 176.688 30.2639C176.146 30.7431 175.443 30.9827 174.579 30.9827C173.714 30.9827 173.011 30.7431 172.469 30.2639C171.928 29.7847 171.657 29.1702 171.657 28.4202ZM192.322 45.4358V38.467C192.322 37.9879 192.254 37.5764 192.119 37.2327C191.983 36.8889 191.77 36.6233 191.478 36.4358C191.186 36.2379 190.796 36.1389 190.306 36.1389C189.91 36.1389 189.572 36.2066 189.291 36.342C189.009 36.4775 188.796 36.6806 188.65 36.9514C188.504 37.2222 188.431 37.566 188.431 37.9827H183.166C183.166 37.2014 183.337 36.4775 183.681 35.8108C184.035 35.1337 184.535 34.5452 185.181 34.0452C185.837 33.5452 186.619 33.1597 187.525 32.8889C188.442 32.6077 189.462 32.467 190.587 32.467C191.931 32.467 193.129 32.691 194.181 33.1389C195.244 33.5868 196.082 34.2587 196.697 35.1545C197.311 36.04 197.619 37.1545 197.619 38.4983V45.4202C197.619 46.5243 197.681 47.3629 197.806 47.9358C197.931 48.4983 198.108 48.9931 198.337 49.4202V49.6858H193.056C192.806 49.165 192.619 48.5295 192.494 47.7795C192.379 47.0191 192.322 46.2379 192.322 45.4358ZM192.962 39.3577L192.994 42.1702H190.666C190.176 42.1702 189.759 42.2379 189.416 42.3733C189.082 42.5087 188.811 42.6962 188.603 42.9358C188.405 43.165 188.259 43.4254 188.166 43.717C188.082 44.0087 188.041 44.316 188.041 44.6389C188.041 44.9514 188.114 45.2327 188.259 45.4827C188.416 45.7222 188.624 45.9097 188.884 46.0452C189.145 46.1806 189.436 46.2483 189.759 46.2483C190.343 46.2483 190.837 46.1389 191.244 45.9202C191.66 45.691 191.978 45.415 192.197 45.092C192.416 44.7691 192.525 44.467 192.525 44.1858L193.681 46.342C193.473 46.7587 193.233 47.1806 192.962 47.6077C192.702 48.0347 192.374 48.4306 191.978 48.7952C191.593 49.1493 191.119 49.441 190.556 49.6702C189.994 49.8889 189.311 49.9983 188.509 49.9983C187.468 49.9983 186.509 49.7847 185.634 49.3577C184.77 48.9306 184.077 48.3368 183.556 47.5764C183.035 46.8056 182.775 45.9202 182.775 44.9202C182.775 44.0452 182.931 43.2639 183.244 42.5764C183.567 41.8889 184.051 41.3056 184.697 40.8264C185.343 40.3472 186.166 39.9827 187.166 39.7327C188.166 39.4827 189.343 39.3577 190.697 39.3577H192.962Z" fill="#4F46E5"/>
</svg>
